# xmcd
# Track frame offsets:
# 150
# 12393
# 28773
# 42777
# 64126
# 81055
# 93833
# 108838
# 124631
# 151673
# 165933
#
# Disc length: 2444 seconds
# Revision: 0
# Processed by: cddbd v1.5.2PL0 Copyright (c) Steve Scherf et al.
# Submitted via: VisiTrax 2.10.0.248 - For more info visit www.synapsa.com
#
DISCID=72098a0b
DTITLE=Boyes, Fiona - The Maton Collection 2000-2006
DYEAR=2007
DGENRE=Blues
TTITLE0=Too Happy To Sing The Blues
TTITLE1=In Love Again
TTITLE2=High Cotton
TTITLE3=Stranger In Your Eyes
TTITLE4=Women Be Wise
TTITLE5=She Could Play That Thing
TTITLE6=You Gonna Miss Me
TTITLE7=Ain't No Jelly Roll In Heaven
TTITLE8=Run Here
TTITLE9=Rockabilly On The Radio
TTITLE10=Mercy/Mississippi Road
EXTD=
EXTT0=
EXTT1=
EXTT2=
EXTT3=
EXTT4=
EXTT5=
EXTT6=
EXTT7=
EXTT8=
EXTT9=
EXTT10=
PLAYORDER=
